<svg width="93" height="186" viewBox="0 0 93 186" fill="none" xmlns="http://www.w3.org/2000/svg">
<g clip-path="url(#clip0_101_6)">
<path d="M-0.000396729 185.389C-0.000396729 173.217 2.39696 161.165 7.05481 149.92C11.7127 138.675 18.5398 128.457 27.1464 119.851C35.753 111.244 45.9705 104.417 57.2156 99.7591C68.4606 95.1012 80.513 92.7039 92.6846 92.7039V185.389H-0.000396729Z" fill="#F2C41E"/>
</g>
<g clip-path="url(#clip1_101_6)">
<path d="M-0.000396729 92.685C-0.000396729 80.5134 2.39696 68.461 7.05481 57.216C11.7127 45.9709 18.5398 35.7534 27.1464 27.1468C35.753 18.5402 45.9705 11.7131 57.2156 7.05522C68.4606 2.39737 80.513 -5.32036e-07 92.6846 0V92.685H-0.000396729Z" fill="#436129"/>
</g>
<defs>
<clipPath id="clip0_101_6">
<rect width="93" height="94" fill="white" transform="translate(0 92)"/>
</clipPath>
<clipPath id="clip1_101_6">
<rect width="93" height="93" fill="white"/>
</clipPath>
</defs>
</svg>
