<svg width="526" height="546" viewBox="0 0 526 546" fill="none" xmlns="http://www.w3.org/2000/svg">
<path d="M159 0H320V410H159V0Z" fill="#CCD591"/>
<path d="M95.1374 95.1364C95.1374 82.6429 92.6766 70.2717 87.8955 58.7293C83.1145 47.1868 76.1068 36.699 67.2726 27.8648C58.4383 19.0306 47.9506 12.0229 36.4081 7.24182C24.8656 2.46077 12.4945 -5.46108e-07 0.000976562 0L0.000984539 95.1364H95.1374Z" fill="#F2C41E"/>
<path d="M467.319 95.1364C467.319 82.6429 464.858 70.2717 460.077 58.7293C455.296 47.1868 448.288 36.699 439.454 27.8648C430.62 19.0306 420.132 12.0229 408.59 7.24182C397.047 2.46077 384.676 -5.46108e-07 372.183 0L372.183 95.1364H467.319Z" fill="#92A760"/>
<path d="M317.819 251.955C317.819 239.461 320.279 227.09 325.061 215.547C329.842 204.005 336.849 193.517 345.684 184.683C354.518 175.849 365.005 168.841 376.548 164.06C388.09 159.279 400.462 156.818 412.955 156.818L412.955 251.955H317.819Z" fill="#F2C41E"/>
<path d="M0.000106812 250.909C0.000106812 230.041 4.11041 209.377 12.0963 190.097C20.0823 170.817 31.7874 153.299 46.5435 138.543C61.2996 123.787 78.8176 112.082 98.0973 104.096C117.377 96.1103 138.041 92 158.909 92V250.909H0.000106812Z" fill="#436129"/>
<path d="M0.000106812 409.909C0.000106812 389.041 4.11041 368.377 12.0963 349.097C20.0823 329.817 31.7874 312.299 46.5435 297.543C61.2996 282.787 78.8176 271.082 98.0973 263.096C117.377 255.11 138.041 251 158.909 251V409.909H0.000106812Z" fill="#436129"/>
<path d="M253 250.909C253 238.553 250.566 226.318 245.838 214.902C241.109 203.486 234.179 193.114 225.441 184.377C216.704 175.64 206.332 168.709 194.916 163.98C183.501 159.252 171.265 156.818 158.909 156.818V250.909H253Z" fill="#F2C41E"/>
<path d="M506 250.909C506 238.553 503.566 226.318 498.838 214.902C494.109 203.486 487.179 193.114 478.441 184.377C469.704 175.64 459.332 168.709 447.916 163.98C436.501 159.252 424.265 156.818 411.909 156.818V250.909H506Z" fill="#92A760"/>
<path d="M506 346.091C506 333.735 503.566 321.5 498.838 310.084C494.109 298.668 487.179 288.296 478.441 279.559C469.704 270.821 459.332 263.891 447.916 259.162C436.501 254.434 424.265 252 411.909 252V346.091H506Z" fill="#436129"/>
<circle cx="500" cy="520" r="26" fill="#F2C41E"/>
<path d="M500.5 504L513.923 527.25H487.077L500.5 504Z" fill="#436129"/>
</svg>
