<svg width="465" height="522" viewBox="0 0 465 522" fill="none" xmlns="http://www.w3.org/2000/svg">
<path d="M0.331055 0H235.534V221.271H0.331055V0Z" fill="#436129"/>
<path d="M86.2666 223.115H233.448V444.355H86.2666V223.115Z" fill="#436129"/>
<path d="M233.448 223.115H464.063V521.227H233.448V223.115Z" fill="#CCD591"/>
<path d="M233.622 223.115C233.622 204.47 229.813 186.007 222.414 168.781C215.014 151.555 204.168 135.903 190.496 122.718C176.823 109.534 160.592 99.0756 142.728 91.9403C124.863 84.805 105.717 81.1326 86.3809 81.1326L86.3809 223.115H233.622Z" fill="#92A760"/>
<path d="M86.3809 223.115C86.3809 212.218 84.1552 201.429 79.8308 191.361C75.5064 181.294 69.168 172.147 61.1775 164.442C53.187 156.737 43.701 150.625 33.2609 146.455C22.8209 142.285 11.6313 140.138 0.331055 140.138V223.115H86.3809Z" fill="#F2C41E"/>
<path d="M465 223.115C465 193.815 459.059 164.802 447.516 137.733C435.974 110.663 419.056 86.067 397.729 65.3489C376.401 44.6307 351.082 28.1962 323.216 16.9836C295.35 5.77104 265.484 -1.28074e-06 235.322 0V223.115H465Z" fill="white"/>
<path d="M233.623 222.193C233.623 211.176 235.873 200.266 240.246 190.087C244.618 179.908 251.027 170.659 259.106 162.868C267.186 155.077 276.777 148.897 287.333 144.681C297.889 140.465 309.203 138.295 320.629 138.295L320.629 222.193H233.623Z" fill="#F2C41E"/>
<path d="M464.043 83.8986C464.043 72.8809 461.793 61.9711 457.42 51.792C453.048 41.613 446.639 32.364 438.56 24.5733C430.48 16.7826 420.889 10.6027 410.333 6.3864C399.777 2.1701 388.463 -4.816e-07 377.037 0L377.037 83.8986H464.043Z" fill="#436129"/>
</svg>
