<svg width="492" height="539" viewBox="0 0 492 539" fill="none" xmlns="http://www.w3.org/2000/svg">
<path d="M0 0H245.819V227.931C245.819 297.507 189.417 353.909 119.841 353.909H0V0Z" fill="#436129"/>
<path d="M301.177 108.19H491.24V539H301.177V108.19Z" fill="#436129"/>
<path d="M153.383 285.852C153.383 273.713 150.993 261.693 146.347 250.479C141.702 239.264 134.893 229.074 126.31 220.49C117.726 211.907 107.536 205.098 96.3211 200.452C85.1062 195.807 73.0862 193.416 60.9473 193.416L60.9473 285.852H153.383Z" fill="#92A760"/>
<path d="M228.551 228.969C228.551 216.83 226.16 204.81 221.515 193.595C216.87 182.38 210.061 172.19 201.477 163.606C192.894 155.023 182.704 148.214 171.489 143.569C160.274 138.923 148.254 136.532 136.115 136.532L136.115 228.969H228.551Z" fill="white"/>
<path d="M207.22 352.894C207.22 340.755 209.611 328.735 214.256 317.52C218.902 306.306 225.711 296.115 234.294 287.532C242.877 278.948 253.068 272.14 264.282 267.494C275.497 262.849 287.517 260.458 299.656 260.458L299.656 352.894H207.22Z" fill="#F2C41E"/>
<path d="M91.4204 353.91C91.4204 341.904 89.0557 330.016 84.4614 318.925C79.8671 307.833 73.1331 297.755 64.644 289.266C56.1548 280.777 46.0767 274.043 34.9851 269.448C23.8934 264.854 12.0055 262.49 0 262.49V353.91H91.4204Z" fill="#F2C41E"/>
<path d="M392.092 351.878C392.092 339.873 389.728 327.985 385.133 316.893C380.539 305.802 373.805 295.724 365.316 287.234C356.827 278.745 346.749 272.011 335.657 267.417C324.565 262.823 312.677 260.458 300.672 260.458V351.878H392.092Z" fill="#92A760"/>
</svg>
