<svg width="32" height="58" viewBox="0 0 32 58" fill="none" xmlns="http://www.w3.org/2000/svg">
<path d="M0.0537815 27.1358C2.10068 27.1358 4.12753 27.5346 6.01861 28.3094C7.90969 29.0842 9.62797 30.2199 11.0753 31.6516C12.5227 33.0833 13.6708 34.783 14.4541 36.6536C15.2375 38.5242 15.6406 40.5291 15.6406 42.5538L0.0537815 42.5538L0.0537815 27.1358Z" fill="#92A760"/>
<path d="M31.1738 27.1358C29.1269 27.1358 27.1 27.5346 25.2089 28.3094C23.3178 29.0842 21.5996 30.2199 20.1522 31.6516C18.7048 33.0833 17.5567 34.783 16.7734 36.6536C15.9901 38.5242 15.5869 40.5291 15.5869 42.5538L31.1738 42.5538V27.1358Z" fill="#436129"/>
<path d="M31.1738 11.7177C29.1269 11.7177 27.1 12.1165 25.2089 12.8914C23.3178 13.6662 21.5996 14.8019 20.1522 16.2336C18.7048 17.6653 17.5567 19.3649 16.7734 21.2356C15.9901 23.1062 15.5869 25.1111 15.5869 27.1358L31.1738 27.1358V11.7177Z" fill="#CCD591"/>
<path d="M7.05719e-05 11.7177C2.04696 11.7177 4.07381 12.1165 5.9649 12.8914C7.85598 13.6662 9.57426 14.8019 11.0216 16.2336C12.469 17.6653 13.6171 19.3649 14.4004 21.2356C15.1837 23.1062 15.5869 25.1111 15.5869 27.1358L7.05719e-05 27.1358L7.05719e-05 11.7177Z" fill="#436129"/>
<path d="M15.5868 57.9719C13.5399 57.9719 11.5131 57.5731 9.62202 56.7983C7.73093 56.0234 6.01265 54.8877 4.56528 53.456C3.11791 52.0243 1.96979 50.3247 1.18648 48.4541C0.403165 46.5835 -8.94726e-08 44.5786 0 42.5538L15.5868 42.5538L15.5868 57.9719Z" fill="#92A760"/>
<path d="M23.9921 57.9719C27.9585 57.9719 31.1738 54.7565 31.1738 50.7902V42.5539H15.587L15.587 57.9719H23.9921Z" fill="#CCD591"/>
<ellipse cx="15.4113" cy="5.85886" rx="5.923" ry="5.85886" fill="#F2C41E"/>
</svg>
