<svg width="36" height="66" viewBox="0 0 36 66" fill="none" xmlns="http://www.w3.org/2000/svg">
<path d="M0.0605907 30.8099C2.38462 30.8099 4.6859 31.2627 6.83302 32.1424C8.98015 33.0221 10.9311 34.3116 12.5744 35.9371C14.2178 37.5627 15.5213 39.4925 16.4107 41.6163C17.3001 43.7402 17.7578 46.0166 17.7578 48.3154L0.0605907 48.3154V30.8099Z" fill="white"/>
<path d="M35.3945 30.8099C33.0705 30.8099 30.7692 31.2627 28.6221 32.1424C26.4749 33.0221 24.524 34.3116 22.8807 35.9371C21.2373 37.5627 19.9338 39.4925 19.0444 41.6163C18.155 43.7402 17.6973 46.0166 17.6973 48.3154L35.3945 48.3154V30.8099Z" fill="white"/>
<path d="M35.3945 13.304C33.0705 13.304 30.7692 13.7568 28.6221 14.6365C26.4749 15.5163 24.524 16.8057 22.8807 18.4313C21.2373 20.0568 19.9338 21.9866 19.0444 24.1105C18.155 26.2344 17.6973 28.5107 17.6973 30.8096L35.3945 30.8096V13.304Z" fill="white"/>
<path d="M4.3869e-05 13.304C2.32408 13.304 4.62535 13.7568 6.77248 14.6365C8.9196 15.5163 10.8705 16.8057 12.5139 18.4313C14.1572 20.0568 15.4608 21.9866 16.3501 24.1105C17.2395 26.2344 17.6973 28.5107 17.6973 30.8096L4.3869e-05 30.8096V13.304Z" fill="white"/>
<path d="M17.6972 65.821C15.3732 65.821 13.0719 65.3682 10.9248 64.4885C8.77766 63.6087 6.82674 62.3193 5.1834 60.6937C3.54006 59.0682 2.23649 57.1384 1.34712 55.0145C0.457752 52.8906 -1.01587e-07 50.6143 0 48.3154L17.6972 48.3154V65.821Z" fill="white"/>
<path d="M27.2404 65.8213C31.7438 65.8213 35.3945 62.1706 35.3945 57.6672V48.3157H17.6973V65.8213H27.2404Z" fill="white"/>
<ellipse cx="17.4974" cy="6.65212" rx="6.72494" ry="6.65212" fill="white"/>
</svg>
